<?xml version="1.0" standalone="no"?>
<!DOCTYPE svg PUBLIC "-//W3C//DTD SVG 20010904//EN"
 "http://www.w3.org/TR/2001/REC-SVG-20010904/DTD/svg10.dtd">
<svg version="1.0" xmlns="http://www.w3.org/2000/svg"
 width="500.000000pt" height="500.000000pt" viewBox="0 0 500.000000 500.000000"
 preserveAspectRatio="xMidYMid meet">
<metadata>
Created by potrace 1.11, written by Peter Selinger 2001-2013
</metadata>
<g transform="translate(0.000000,500.000000) scale(0.100000,-0.100000)"
fill="#000000" stroke="none">
<path d="M2270 4548 c-124 -72 -378 -218 -565 -326 -187 -107 -373 -215 -412
-239 -40 -23 -75 -43 -79 -43 -3 0 -26 -13 -51 -30 -24 -16 -46 -30 -49 -30
-2 0 -34 -18 -70 -40 -36 -22 -67 -40 -69 -40 -1 0 -83 -47 -181 -104 l-179
-104 -3 -1090 -2 -1090 57 -35 c32 -19 78 -46 103 -59 25 -14 86 -49 135 -78
50 -29 106 -61 125 -72 19 -11 181 -105 360 -208 179 -103 341 -197 360 -207
19 -11 150 -87 290 -168 140 -81 271 -156 290 -167 19 -11 65 -38 102 -60 l68
-39 92 54 c51 30 113 66 138 79 54 30 1496 862 1593 919 l67 40 0 1089 0 1089
-57 34 c-32 19 -139 81 -238 138 -99 57 -188 109 -197 114 -9 6 -34 20 -56 31
-21 12 -232 134 -468 270 -422 244 -777 449 -842 485 -18 11 -34 19 -35 18 -1
0 -103 -59 -227 -131z m322 -217 c68 -40 543 -314 1038 -599 52 -30 157 -91
234 -135 l138 -80 -43 -27 c-24 -15 -71 -42 -104 -60 -33 -18 -64 -36 -70 -40
-5 -4 -100 -59 -210 -122 -302 -174 -932 -537 -968 -558 -18 -10 -49 -28 -70
-40 l-39 -21 -81 48 c-130 75 -389 224 -422 243 -111 64 -314 181 -390 225
-49 29 -110 63 -135 77 -25 14 -85 49 -135 78 -101 59 -113 66 -242 140 -51
28 -91 56 -88 60 3 4 19 15 37 25 18 9 42 22 53 28 11 7 47 27 80 46 33 19 85
49 115 67 30 18 157 91 281 162 124 72 241 140 260 151 19 11 43 25 54 30 11
6 151 86 310 180 160 93 295 169 302 170 6 1 49 -21 95 -48z m-1392 -1229
c129 -74 321 -185 425 -245 105 -60 219 -126 255 -147 145 -84 378 -219 433
-249 l57 -32 0 -871 0 -870 -22 14 c-19 12 -401 233 -528 306 -19 10 -75 43
-125 72 -49 29 -106 61 -125 72 -19 11 -75 44 -125 73 -49 29 -108 63 -130 75
-68 38 -440 253 -444 256 -5 5 -8 1704 -3 1721 5 14 -1 18 332 -175z m2934
-681 c-1 -474 -3 -863 -5 -865 -2 -1 -94 -55 -204 -118 -110 -64 -301 -174
-425 -245 -309 -179 -548 -317 -590 -340 -75 -43 -217 -126 -247 -145 l-33
-20 0 870 0 870 318 183 c567 327 816 471 857 494 22 12 103 59 180 103 76 44
142 79 145 77 3 -2 5 -391 4 -864z"/>
</g>
</svg>
