<?xml version="1.0" encoding="UTF-8"?>
<svg width="452px" height="404px" viewBox="0 0 452 404" version="1.1" xmlns="http://www.w3.org/2000/svg" xmlns:xlink="http://www.w3.org/1999/xlink">
    <!-- Generator: Sketch 52.2 (67145) - http://www.bohemiancoding.com/sketch -->
    <title>HA Logo</title>
    <desc>Created with Sketch.</desc>
    <g id="Logos" stroke="none" stroke-width="1" fill="none" fill-rule="evenodd">
        <g id="Github" transform="translate(-24.000000, -42.000000)" fill="#000000" fill-rule="nonzero">
            <g id="HA-Logo" transform="translate(24.000000, 42.000000)">
                <path d="M366.899767,280.320759 L262.138503,280.320759 L281.233928,245.551227 L351.451106,244.01837 L351.501311,244.01837 C351.473938,243.953837 351.446565,243.889304 351.419192,243.824771 C344.621737,227.799537 334.58103,203.774643 321.297069,171.750089 L341.895189,134.579474 L452,372.664692 L406.048038,372.614158 C393.049784,341.970325 380.000361,311.205859 366.899767,280.320759 Z M211.019741,348.382634 C210.001373,350.212053 208.678734,350.212053 208.250273,350.212053 L191.062191,350.212053 C181.965173,350.205808 171.471004,350.199565 165.224178,350.199565 L232.070176,229.926169 C233.181688,227.928169 233.156849,225.493104 232.001869,223.520079 C230.84689,221.547053 228.748056,220.335766 226.475354,220.335766 L226.469145,220.335766 L112.542205,220.485616 L89.8897023,181.174953 L255.827982,181.174953 C255.8404,181.174953 255.85282,181.16871 255.871448,181.16871 C255.890077,181.16871 255.902496,181.174953 255.914916,181.174953 C256.008059,181.174953 256.094992,181.143735 256.188136,181.13749 C256.56071,181.112516 256.933284,181.075053 257.28723,180.98764 C257.56045,180.925203 257.827462,180.837791 258.094474,180.737891 C258.237294,180.681697 258.373903,180.625503 258.510515,180.563066 C259.752429,180.007371 260.851522,179.095783 261.553202,177.803328 L288.906349,127.122792 L334.062326,127.122792 L211.019741,348.382634 Z M154.090423,343.812206 C152.637385,341.414606 150.749676,338.298974 148.694309,334.908616 C141.78306,323.476306 132.928217,308.84095 131.928476,307.236307 C131.593159,306.6931 131.43792,305.369425 132.139601,304.108187 C133.74167,301.223574 163.994684,246.609474 171.36544,233.297795 L215.540306,233.241601 L154.090423,343.812206 Z M78.7559475,268.543775 L56.7989161,229.4454 L78.9298154,187.868256 L101.12902,226.385962 C94.2301907,239.404184 83.4628,259.708866 78.7559475,268.543775 Z M49.2853391,274.631433 C38.1081171,274.631433 26.992991,274.62519 25.3598746,274.62519 L25.353665,274.62519 C24.2607811,274.62519 22.9381432,273.857208 22.3358153,272.870696 L15.1886027,261.063761 C10.0967572,252.647183 3.60154929,241.914172 0,235.976365 L45.739676,235.976365 L67.4483247,274.637678 C62.7104246,274.637678 56.0040914,274.631433 49.2853391,274.631433 Z M123.551769,1.8356631 C124.570138,0 125.886567,0 126.315027,0 L169.527408,0.00624375075 L102.501334,120.279639 C102.445448,120.379539 102.414401,120.485683 102.364724,120.591827 C102.265371,120.791627 102.178437,120.997671 102.097713,121.209958 C102.029407,121.416002 101.967312,121.615803 101.911425,121.821846 C101.861749,122.015403 101.818282,122.208959 101.787235,122.402515 C101.749977,122.646021 101.725139,122.883284 101.718929,123.120547 C101.71272,123.22669 101.687881,123.326591 101.687881,123.438978 C101.687881,123.520147 101.70651,123.595071 101.71272,123.67624 C101.718929,123.913503 101.743767,124.144522 101.781025,124.375541 C101.805863,124.569097 101.836911,124.762653 101.886587,124.956209 C101.936264,125.162253 102.004569,125.35581 102.072875,125.55561 C102.14118,125.749166 102.209485,125.948966 102.296419,126.136279 C102.383353,126.323591 102.482706,126.498417 102.588269,126.679485 C102.693831,126.85431 102.793184,127.029135 102.917376,127.197716 C103.035357,127.366298 103.171968,127.522392 103.314788,127.684729 C103.451398,127.834579 103.588009,127.990673 103.737039,128.134279 C103.886068,128.271642 104.041308,128.390273 104.202756,128.515148 C104.382834,128.658755 104.562911,128.789873 104.755408,128.908504 C104.829922,128.952211 104.885809,129.008405 104.960324,129.052111 C105.034839,129.095817 105.115562,129.108305 105.196287,129.145767 C105.525394,129.314349 105.87313,129.457955 106.239495,129.570343 C106.369896,129.607805 106.494087,129.657755 106.630697,129.688974 C107.096415,129.801361 107.574552,129.870043 108.077526,129.870043 C108.083736,129.870043 108.083736,129.876286 108.089946,129.876286 L108.096155,129.876286 L108.102365,129.876286 L110.940137,129.870043 C110.952557,129.870043 110.964976,129.876286 110.977394,129.876286 L110.983604,129.876286 L222.047932,129.726436 C224.985059,134.846313 230.474316,144.480422 235.15012,152.684713 C238.73925,158.990902 241.707424,164.191948 244.042221,168.281604 L78.7683668,168.281604 C78.6938518,168.281604 78.6255464,168.30658 78.5572418,168.312823 C76.3093778,168.350286 74.1422389,169.542842 72.9996783,171.684449 L45.6403229,223.083016 L0.51539413,223.083016 C20.212143,187.655967 122.235341,4.19580137 123.551769,1.8356631 Z M288.831833,114.235687 L267.116974,75.574375 L309.186797,75.5868625 C310.310729,75.5868625 311.620948,76.3361123 312.235696,77.3476007 C312.906328,78.4527447 316.32159,84.0970959 320.426115,90.8778108 C325.337882,98.9946888 331.212135,108.697479 334.57151,114.235687 L288.831833,114.235687 Z M180.574229,6.54969589 L184.585611,13.1680732 C191.63347,24.8189143 201.587408,41.2649572 202.643033,42.9757453 C202.978351,43.5189517 203.133589,44.8363834 202.425699,46.103865 L163.199859,116.914257 L119.043624,116.970451 L180.574229,6.54969589 Z M255.796934,81.6245705 L277.766384,120.741677 L255.368473,162.231409 C252.69836,157.561083 249.382449,151.741906 246.271457,146.278623 C240.123985,135.483175 235.640677,127.622292 233.113383,123.22669 C237.88854,114.466706 250.51259,91.2898985 255.796934,81.6245705 Z M407.754959,379.232641 L450.60264,379.303141 L436.691738,404 L394.450437,403.9305 L407.754959,379.232641 Z M258.040391,288.105482 L350.092868,288.105482 L337.175279,310.532854 L244.892549,310.532854 L258.040391,288.105482 Z M318.110866,181.176512 L343.356681,237.947963 L325.246714,238.042021 L306.816915,200.372152 L318.110866,181.176512 Z M345.780081,314.356374 L358.723526,291.820845 L396.462614,376.211403 L382.601558,400.675052 L345.780081,314.356374 Z" id="Combined-Shape"></path>
            </g>
        </g>
    </g>
</svg>