<?xml version="1.0" encoding="UTF-8"?>
<svg width="480px" height="400px" viewBox="0 0 480 400" version="1.1" xmlns="http://www.w3.org/2000/svg" xmlns:xlink="http://www.w3.org/1999/xlink">
    <!-- Generator: Sketch 52.2 (67145) - http://www.bohemiancoding.com/sketch -->
    <title>bitcoin</title>
    <desc>Created with Sketch.</desc>
    <g id="Handshakealliance.org" stroke="none" stroke-width="1" fill="none" fill-rule="evenodd">
        <g id="Desktop-HD-Copy-4" transform="translate(-756.000000, -534.000000)" fill="#000000">
            <g id="bitcoin" transform="translate(756.000000, 534.000000)">
                <path d="M424,0 L184,0 C153.089844,0.0390625 128.039062,25.089844 128,56 L128,88 L56,88 C25.089844,88.039062 0.0390625,113.089844 0,144 L0,272 C0.0390625,302.910156 25.089844,327.960938 56,328 L103.335938,328 C106.566406,328 109.476562,329.941406 110.71875,332.921875 L136.617188,395.078125 C137.859375,398.058594 140.769531,400 144,400 C147.230469,400 150.140625,398.058594 151.382812,395.078125 L177.28125,332.921875 C178.523438,329.941406 181.433594,328 184.664062,328 L296,328 C326.910156,327.960938 351.960938,302.910156 352,272 L352,240 L373.761719,240 L409.761719,284.960938 C411.878906,287.601562 415.433594,288.621094 418.632812,287.507812 C421.832031,286.394531 423.980469,283.386719 424,280 L424,240 C454.910156,239.960938 479.960938,214.910156 480,184 L480,56 C479.960938,25.089844 454.910156,0.0390625 424,0 Z M336,272 C335.972656,294.082031 318.082031,311.972656 296,312 L184.664062,312 C174.972656,311.984375 166.226562,317.8125 162.511719,326.769531 L144,371.199219 L125.488281,326.769531 C121.773438,317.8125 113.027344,311.984375 103.335938,312 L56,312 C33.917969,311.972656 16.027344,294.082031 16,272 L16,144 C16.027344,121.917969 33.917969,104.027344 56,104 L296,104 C318.082031,104.027344 335.972656,121.917969 336,144 L336,272 Z M464,184 C463.960938,206.074219 446.074219,223.960938 424,224 C415.164062,224 408,231.164062 408,240 L408,257.207031 L386.265625,230.070312 C383.230469,226.257812 378.632812,224.023438 373.761719,224 L352,224 L352,144 C351.960938,113.089844 326.910156,88.039062 296,88 L144,88 L144,56 C144.027344,33.917969 161.917969,16.027344 184,16 L424,16 C446.082031,16.027344 463.972656,33.917969 464,56 L464,184 Z" id="Shape" fill-rule="nonzero"></path>
                <path d="M168,128 C123.816406,128 88,163.816406 88,208 C88,252.183594 123.816406,288 168,288 C212.183594,288 248,252.183594 248,208 C247.953125,163.835938 212.164062,128.046875 168,128 Z M168,272 C132.652344,272 104,243.347656 104,208 C104,172.652344 132.652344,144 168,144 C203.347656,144 232,172.652344 232,208 C231.960938,243.328125 203.328125,271.960938 168,272 Z" id="Shape" fill-rule="nonzero"></path>
                <polygon id="Path" points="200 56 408 56 408 72 200 72"></polygon>
                <polygon id="Path" points="360 104 408 104 408 120 360 120"></polygon>
                <polygon id="Path" points="360 152 408 152 408 168 360 168"></polygon>
                <g id="logo-dark-(1)" transform="translate(130.000000, 170.000000)" fill-rule="nonzero">
                    <path d="M64.7466592,24.1380638 L59.8788975,15.9689071 L69.3095768,15.9715458 C69.5615257,15.9715458 69.8552338,16.1298627 69.9930402,16.3435907 C70.1433742,16.5771083 70.9089643,17.7697628 71.8290647,19.2025316 C72.9301225,20.9176324 74.2469377,22.9678374 75,24.1380638 L64.7466592,24.1380638 Z M47.3037305,73.6134427 C47.0754455,74 46.7789532,74 46.6829065,74 L42.8298998,74 C40.7906458,73.9986808 38.438196,73.9973613 37.0378618,73.9973613 L52.0225502,48.5835265 C52.271715,48.1613479 52.266147,47.6468175 52.0072383,47.2299162 C51.7483297,46.8130148 51.2778397,46.557069 50.7683742,46.557069 L50.7669822,46.557069 L25.228285,46.5887323 L20.150334,38.2823676 L57.348274,38.2823676 C57.3510578,38.2823676 57.3538418,38.2810483 57.3580178,38.2810483 C57.3621938,38.2810483 57.3649777,38.2823676 57.3677617,38.2823676 C57.3886415,38.2823676 57.4081292,38.275771 57.4290088,38.2744518 C57.5125278,38.2691745 57.5960468,38.2612587 57.6753898,38.2427884 C57.736637,38.2295953 57.7964922,38.2111249 57.8563475,38.190016 C57.888363,38.1781423 57.9189867,38.1662685 57.9496102,38.1530754 C58.2280067,38.0356569 58.4743875,37.8430379 58.6316815,37.5699412 L64.763363,26.8611161 L74.8858575,26.8611161 L47.3037305,73.6134427 Z M34.5420378,72.647709 C34.216314,72.1410947 33.7931515,71.4827598 33.3324053,70.7663754 C31.7831292,68.3507221 29.7981627,65.2582635 29.5740535,64.9192013 C29.4988863,64.8044215 29.4640868,64.5247281 29.6213808,64.2582278 C29.9805122,63.6487074 36.7622495,52.1087181 38.4145323,49.2959529 L48.3170935,49.2840792 L34.5420378,72.647709 Z M17.65451,56.743448 L12.732461,48.4819397 L17.6934855,39.6966661 L22.6698218,47.8354787 C21.1233297,50.5862364 18.7096325,54.8766268 17.65451,56.743448 Z M11.0481626,58.0297736 C8.54259465,58.0297736 6.05094655,58.0284542 5.68485523,58.0284542 L5.68346325,58.0284542 C5.43847438,58.0284542 5.14198218,57.8661793 5.00695992,57.6577287 L3.40478842,55.1629168 C2.26336303,53.3844893 0.807349667,51.1165983 0,49.8619362 L10.2533408,49.8619362 L15.1197105,58.0310929 C14.0576281,58.0310929 12.5542873,58.0297736 11.0481626,58.0297736 Z M27.6962695,0.387876627 C27.9245545,0 28.2196548,0 28.3157015,0 L38.0025055,0.00131930826 L22.9774498,25.4151542 C22.964922,25.4362631 22.9579622,25.4586914 22.9468263,25.4811197 C22.9245545,25.5233375 22.9050668,25.5668747 22.886971,25.6117311 C22.8716592,25.6552683 22.8577395,25.6974862 22.8452115,25.7410233 C22.8340757,25.781922 22.8243318,25.8228205 22.817372,25.8637191 C22.80902,25.915172 22.8034522,25.9653058 22.8020602,26.0154395 C22.8006682,26.0378677 22.7951002,26.0589767 22.7951002,26.0827243 C22.7951002,26.0998753 22.7992762,26.1157069 22.8006682,26.1328578 C22.8020602,26.1829916 22.807628,26.2318061 22.81598,26.2806204 C22.8215478,26.321519 22.8285078,26.3624175 22.8396437,26.403316 C22.8507795,26.4468532 22.8660913,26.4877518 22.8814032,26.5299697 C22.896715,26.5708683 22.9120267,26.613086 22.9315145,26.6526653 C22.9510022,26.6922446 22.973274,26.7291853 22.9969377,26.7674452 C23.0206013,26.8043858 23.042873,26.8413264 23.0707127,26.8769477 C23.0971603,26.9125691 23.127784,26.9455518 23.1597995,26.9798538 C23.1904232,27.0115172 23.2210468,27.0444999 23.2544543,27.074844 C23.2878618,27.1038688 23.3226615,27.1289356 23.358853,27.1553218 C23.3992205,27.1856659 23.439588,27.2133714 23.4827395,27.2384382 C23.4994432,27.2476734 23.511971,27.2595472 23.5286748,27.2687823 C23.5453787,27.2780175 23.5634743,27.2806561 23.5815702,27.2885719 C23.6553452,27.3241933 23.7332962,27.3545374 23.8154232,27.3782849 C23.8446548,27.3862007 23.8724945,27.3967552 23.903118,27.4033517 C24.0075167,27.4270993 24.1146993,27.4416118 24.2274498,27.4416118 C24.2288418,27.4416118 24.2288418,27.442931 24.2302338,27.442931 L24.2316258,27.442931 L24.2330178,27.442931 L24.8691537,27.4416118 C24.8719377,27.4416118 24.8747217,27.442931 24.8775055,27.442931 L24.8788975,27.442931 L49.7758908,27.4112677 C50.4342985,28.4931004 51.6648107,30.5287931 52.7129733,32.2623641 C53.517539,33.5948654 54.1829065,34.6938492 54.7062918,35.557996 L17.657294,35.557996 C17.6405902,35.557996 17.6252783,35.5632733 17.6099667,35.5645926 C17.106069,35.5725085 16.6202673,35.8244963 16.3641425,36.2770191 L10.2310691,47.1375647 L0.115534521,47.1375647 C4.530902,39.6518095 27.4011693,0.886575147 27.6962695,0.387876627 Z M40.4788418,1.38395436 L41.3780623,2.78242111 C42.9579622,5.24425031 45.1893095,8.71930826 45.4259465,9.08079872 C45.5011137,9.19557854 45.5359132,9.47395258 45.3772272,9.74177215 L36.5840757,24.7040471 L26.6856905,24.7159208 L40.4788418,1.38395436 Z M57.341314,17.2473168 L62.266147,25.512783 L57.2452673,34.2795863 C56.646715,33.2927437 55.9033965,32.0631486 55.2060133,30.9087538 C53.827951,28.6276698 52.8229398,26.9666607 52.2564032,26.0378677 C53.3268373,24.1868783 56.1567372,19.289606 57.341314,17.2473168 Z" id="Fill-1"></path>
                </g>
            </g>
        </g>
    </g>
</svg>